<svg width="42" height="18" viewBox="0 0 42 18" fill="none" xmlns="http://www.w3.org/2000/svg">
<rect x="0.138672" width="37.4" height="14.4" rx="7.2" fill="#3F5C9F"/>
<path d="M7.45703 6.85938C7.86719 6.85938 8.1862 6.80241 8.41406 6.68848C8.77214 6.50944 8.95117 6.18717 8.95117 5.72168C8.95117 5.25293 8.76074 4.93717 8.37988 4.77441C8.16504 4.68327 7.84603 4.6377 7.42285 4.6377H5.68945V6.85938H7.45703ZM7.78418 10.1699C8.37988 10.1699 8.80469 9.9974 9.05859 9.65234C9.2181 9.43424 9.29785 9.17057 9.29785 8.86133C9.29785 8.34049 9.0651 7.98568 8.59961 7.79688C8.35221 7.69596 8.02507 7.64551 7.61816 7.64551H5.68945V10.1699H7.78418ZM4.7373 3.82715H7.81836C8.6582 3.82715 9.25553 4.0778 9.61035 4.5791C9.81868 4.87533 9.92285 5.21712 9.92285 5.60449C9.92285 6.05697 9.79427 6.42806 9.53711 6.71777C9.40365 6.87077 9.21159 7.01074 8.96094 7.1377C9.32878 7.27767 9.60384 7.43555 9.78613 7.61133C10.1084 7.92383 10.2695 8.35514 10.2695 8.90527C10.2695 9.36751 10.1247 9.78581 9.83496 10.1602C9.40202 10.7201 8.71354 11 7.76953 11H4.7373V3.82715ZM13.3896 10.4336C13.9723 10.4336 14.3711 10.2139 14.5859 9.77441C14.804 9.33171 14.9131 8.84017 14.9131 8.2998C14.9131 7.81152 14.835 7.41439 14.6787 7.1084C14.4313 6.62663 14.0049 6.38574 13.3994 6.38574C12.8623 6.38574 12.4717 6.59082 12.2275 7.00098C11.9834 7.41113 11.8613 7.90592 11.8613 8.48535C11.8613 9.04199 11.9834 9.50586 12.2275 9.87695C12.4717 10.248 12.859 10.4336 13.3896 10.4336ZM13.4238 5.61914C14.0977 5.61914 14.6673 5.84375 15.1328 6.29297C15.5983 6.74219 15.8311 7.40299 15.8311 8.27539C15.8311 9.11849 15.626 9.8151 15.2158 10.3652C14.8057 10.9154 14.1693 11.1904 13.3066 11.1904C12.5872 11.1904 12.016 10.9479 11.5928 10.4629C11.1696 9.97461 10.958 9.32031 10.958 8.5C10.958 7.62109 11.181 6.92122 11.627 6.40039C12.0729 5.87956 12.6719 5.61914 13.4238 5.61914ZM18.9561 10.4336C19.5387 10.4336 19.9375 10.2139 20.1523 9.77441C20.3704 9.33171 20.4795 8.84017 20.4795 8.2998C20.4795 7.81152 20.4014 7.41439 20.2451 7.1084C19.9977 6.62663 19.5713 6.38574 18.9658 6.38574C18.4287 6.38574 18.0381 6.59082 17.7939 7.00098C17.5498 7.41113 17.4277 7.90592 17.4277 8.48535C17.4277 9.04199 17.5498 9.50586 17.7939 9.87695C18.0381 10.248 18.4255 10.4336 18.9561 10.4336ZM18.9902 5.61914C19.6641 5.61914 20.2337 5.84375 20.6992 6.29297C21.1647 6.74219 21.3975 7.40299 21.3975 8.27539C21.3975 9.11849 21.1924 9.8151 20.7822 10.3652C20.3721 10.9154 19.7357 11.1904 18.873 11.1904C18.1536 11.1904 17.5824 10.9479 17.1592 10.4629C16.736 9.97461 16.5244 9.32031 16.5244 8.5C16.5244 7.62109 16.7474 6.92122 17.1934 6.40039C17.6393 5.87956 18.2383 5.61914 18.9902 5.61914ZM22.4277 3.82715H23.2725V7.99219L25.5283 5.77051H26.6514L24.6494 7.72852L26.7637 11H25.6406L24.0098 8.36328L23.2725 9.03711V11H22.4277V3.82715Z" fill="white"/>
<path d="M41.1616 10.8C41.1616 6.97285 38.2355 3.9 34.6616 3.9C31.0876 3.9 28.1616 6.97285 28.1616 10.8C28.1616 14.6272 31.0876 17.7 34.6616 17.7C38.2355 17.7 41.1616 14.6272 41.1616 10.8Z" fill="#F0FFE7" stroke="#4BB40C" stroke-width="0.6"/>
<path d="M31.2617 10.9565L32.8484 12.6L38.0617 7.20001" stroke="#4BB40C" stroke-width="0.6"/>
</svg>
