<svg width="19" height="19" viewBox="0 0 19 19" fill="none" xmlns="http://www.w3.org/2000/svg">
<path d="M0.5 2C0.5 0.89543 1.39543 0 2.5 0H6.68182C7.78639 0 8.68182 0.895431 8.68182 2V8.63636H2.5C1.39543 8.63636 0.5 7.74093 0.5 6.63636V2Z" fill="#3F5C9F"/>
<path d="M0.5 12.3637C0.5 11.2591 1.39543 10.3637 2.5 10.3637H8.68182V17.0001C8.68182 18.1046 7.78639 19.0001 6.68182 19.0001H2.5C1.39543 19.0001 0.5 18.1046 0.5 17.0001V12.3637Z" fill="#3F5C9F"/>
<path d="M10.3181 2C10.3181 0.89543 11.2135 0 12.3181 0H16.4999C17.6045 0 18.4999 0.895431 18.4999 2V6.63636C18.4999 7.74093 17.6045 8.63636 16.4999 8.63636H10.3181V2Z" fill="#3F5C9F"/>
<path d="M10.3181 10.3637H16.4999C17.6045 10.3637 18.4999 11.2591 18.4999 12.3637V17.0001C18.4999 18.1046 17.6045 19.0001 16.4999 19.0001H12.3181C11.2135 19.0001 10.3181 18.1046 10.3181 17.0001V10.3637Z" fill="#3F5C9F"/>
</svg>
